<svg width="15" height="15" viewBox="0 0 15 15" fill="none" xmlns="http://www.w3.org/2000/svg">
<path d="M11.9963 4.1704C12.0506 4.22459 12.0937 4.28896 12.1231 4.35983C12.1525 4.4307 12.1677 4.50667 12.1677 4.5834C12.1677 4.66013 12.1525 4.7361 12.1231 4.80697C12.0937 4.87784 12.0506 4.94221 11.9963 4.9964L6.7463 10.2464C6.69211 10.3007 6.62774 10.3438 6.55687 10.3732C6.486 10.4026 6.41003 10.4178 6.3333 10.4178C6.25657 10.4178 6.18059 10.4026 6.10972 10.3732C6.03886 10.3438 5.97448 10.3007 5.9203 10.2464L3.58696 7.91307C3.47743 7.80353 3.41589 7.65497 3.41589 7.50007C3.41589 7.34516 3.47743 7.1966 3.58696 7.08707C3.6965 6.97753 3.84506 6.916 3.99996 6.916C4.15487 6.916 4.30343 6.97753 4.41296 7.08707L6.3333 9.00857L11.1703 4.1704C11.2245 4.11608 11.2889 4.07298 11.3597 4.04357C11.4306 4.01416 11.5066 3.99902 11.5833 3.99902C11.66 3.99902 11.736 4.01416 11.8069 4.04357C11.8777 4.07298 11.9421 4.11608 11.9963 4.1704Z" fill="white"/>
</svg>
