<svg width="21" height="20" viewBox="0 0 21 20" fill="none" xmlns="http://www.w3.org/2000/svg">
<path d="M16.3346 3.33331H4.66797C4.00493 3.33331 3.36904 3.59671 2.9002 4.06555C2.43136 4.53439 2.16797 5.17027 2.16797 5.83331V14.1666C2.16797 14.8297 2.43136 15.4656 2.9002 15.9344C3.36904 16.4033 4.00493 16.6666 4.66797 16.6666H16.3346C16.9977 16.6666 17.6336 16.4033 18.1024 15.9344C18.5712 15.4656 18.8346 14.8297 18.8346 14.1666V5.83331C18.8346 5.17027 18.5712 4.53439 18.1024 4.06555C17.6336 3.59671 16.9977 3.33331 16.3346 3.33331ZM16.3346 4.99998L10.918 8.72498C10.7913 8.79812 10.6476 8.83663 10.5013 8.83663C10.355 8.83663 10.2113 8.79812 10.0846 8.72498L4.66797 4.99998H16.3346Z" fill="white"/>
</svg>
