<svg width="144" height="24" viewBox="0 0 144 24" fill="none" xmlns="http://www.w3.org/2000/svg">
<path d="M30.2812 19.1664V4.83356H34.9141C36.1898 4.83356 37.3312 5.13565 38.3383 5.70628C39.3455 6.27691 40.1512 7.0825 40.7219 8.12306C41.2926 9.16362 41.5612 10.3384 41.5948 11.6475V12.3189C41.5948 13.628 41.3262 14.8028 40.7555 15.8433C40.1848 16.8839 39.4126 17.6895 38.4055 18.2937C37.3984 18.8979 36.2569 19.1664 35.0148 19.2H30.2812V19.1664ZM33.7391 7.48531V16.5147H34.9476C35.9548 16.5147 36.6934 16.1454 37.2305 15.4405C37.7676 14.7356 38.0362 13.6951 38.0362 12.2853V11.6811C38.0362 10.3049 37.7676 9.26432 37.2305 8.55942C36.6934 7.85453 35.9212 7.51887 34.9141 7.51887H33.7391V7.48531Z" fill="white"/>
<path d="M46.3282 8.4923L46.4289 9.86852C46.9996 8.82796 47.7717 8.29089 48.7789 8.29089C49.786 8.29089 49.4503 8.32447 49.7189 8.42517L49.6517 11.5133L48.5439 11.4461C47.5032 11.4461 46.8317 11.7818 46.5296 12.4196V19.1664H43.2061V8.4923H46.3282Z" fill="white"/>
<path d="M50.4912 14.0979V13.8294C50.4912 12.7553 50.6926 11.7818 51.0955 10.9427C51.4983 10.1035 52.1026 9.46575 52.8748 8.99582C53.6469 8.52589 54.5533 8.32449 55.6276 8.32449C56.7019 8.32449 58.3133 8.79441 59.1862 9.73427C60.059 10.6741 60.4954 11.9497 60.4954 13.628V14.9035H53.8819C54.0162 15.5077 54.2512 15.9776 54.654 16.3133C55.0569 16.649 55.5605 16.8168 56.1983 16.8168C57.239 16.8168 58.0783 16.4476 58.649 15.7091L60.1597 17.4881C59.7569 18.0588 59.1526 18.5287 58.414 18.8643C57.6419 19.2 56.8362 19.3678 55.9633 19.3678C54.3183 19.3678 53.0091 18.8644 52.0019 17.8909C50.9948 16.9175 50.4912 15.642 50.4912 14.0979ZM53.8819 12.7888H57.239V12.4532C57.239 11.9497 57.1047 11.5469 56.8362 11.2783C56.5676 10.9762 56.1647 10.842 55.6276 10.842C54.654 10.842 54.0833 11.4797 53.8819 12.7888Z" fill="white"/>
<path d="M62.6104 13.5273C63.4497 12.9231 64.6918 12.6545 66.3368 12.6545H67.3775V12.0839C67.3775 11.1105 66.9411 10.607 66.1018 10.607C65.2625 10.607 64.9268 11.0098 64.9268 11.7818H61.6033C61.6033 10.7413 62.0397 9.90209 62.9126 9.26433C63.7854 8.62657 64.8933 8.29089 66.2697 8.29089C67.6461 8.29089 68.6868 8.62656 69.4925 9.29789C70.2647 9.96922 70.7011 10.8755 70.7011 12.0168V16.7496C70.7011 17.7231 70.8689 18.4615 71.1711 18.9986V19.1664H67.8475C67.7133 18.965 67.6125 18.6294 67.5454 18.2266C66.9411 18.9986 66.0683 19.3678 64.994 19.3678C63.9197 19.3678 63.1476 19.0657 62.4426 18.4615C61.7376 17.8573 61.4019 17.0853 61.4019 16.179C61.4019 15.2727 61.8383 14.165 62.6776 13.5608L62.6104 13.5273ZM64.9604 16.7161C65.1618 16.9175 65.4304 17.0182 65.7325 17.0182C66.0347 17.0182 66.5047 16.9175 66.7733 16.7496C67.0418 16.5818 67.2433 16.3804 67.344 16.1454V14.4335H66.3704C65.229 14.4335 64.6247 14.9371 64.6247 15.9776C64.6247 17.0182 64.7254 16.5147 64.9268 16.7161H64.9604Z" fill="white"/>
<path d="M72.5474 8.4923H75.6695L75.7702 9.73425C76.5088 8.76082 77.5495 8.29089 78.8252 8.29089C80.1009 8.29089 81.0745 8.82795 81.5445 9.90208C82.283 8.82795 83.3237 8.29089 84.6666 8.29089C86.8151 8.29089 87.923 9.59999 87.9901 12.2182V19.1664H84.6666V12.4531C84.6666 11.9161 84.5659 11.5133 84.398 11.2447C84.2302 11.0098 83.8944 10.8755 83.3909 10.8755C82.8873 10.8755 82.2494 11.1776 81.9137 11.7482V11.8825V19.1664H78.5902V12.4531C78.5902 11.8825 78.4895 11.4797 78.3216 11.2447C78.1538 11.0098 77.818 10.8755 77.3145 10.8755C76.8109 10.8755 76.2066 11.1776 75.8709 11.7482V19.1664H72.5474V8.4923Z" fill="white"/>
<path d="M90.7095 13.5273C91.5488 12.9231 92.791 12.6545 94.4359 12.6545H95.4767V12.0839C95.4767 11.1105 95.0402 10.607 94.2009 10.607C93.3617 10.607 93.026 11.0098 93.026 11.7818H89.7024C89.7024 10.7413 90.1388 9.90209 91.0117 9.26433C91.8845 8.62657 92.9924 8.29089 94.3688 8.29089C95.7452 8.29089 96.7859 8.62656 97.5916 9.29789C98.3638 9.96922 98.8002 10.8755 98.8002 12.0168V16.7496C98.8002 17.7231 98.9681 18.4615 99.2702 18.9986V19.1664H95.9466C95.8124 18.965 95.7117 18.6294 95.6445 18.2266C95.0402 18.9986 94.1674 19.3678 93.0931 19.3678C92.0188 19.3678 91.2467 19.0657 90.5417 18.4615C89.8367 17.8573 89.501 17.0853 89.501 16.179C89.501 15.2727 89.9374 14.165 90.7767 13.5608L90.7095 13.5273ZM93.0595 16.7161C93.2609 16.9175 93.5295 17.0182 93.8317 17.0182C94.1338 17.0182 94.6038 16.9175 94.8724 16.7496C95.1409 16.5818 95.3424 16.3804 95.4431 16.1454V14.4335H94.4695C93.3281 14.4335 92.7238 14.9371 92.7238 15.9776C92.7238 17.0182 92.8245 16.5147 93.026 16.7161H93.0595Z" fill="white"/>
<path d="M103.735 8.4923L103.836 9.86852C104.406 8.82796 105.178 8.29089 106.186 8.29089C107.193 8.29089 106.857 8.32447 107.126 8.42517L107.058 11.5133L105.951 11.4461C104.91 11.4461 104.238 11.7818 103.936 12.4196V19.1664H100.613V8.4923H103.735Z" fill="white"/>
<path d="M108.804 8.4923V5.84055H112.128V8.4923H113.874V10.8084H112.128V15.6755C112.128 16.0783 112.195 16.3468 112.329 16.5147C112.464 16.6825 112.766 16.7496 113.202 16.7496C113.639 16.7496 113.806 16.7496 114.041 16.6825V19.0657C113.437 19.2671 112.833 19.3678 112.161 19.3678C111.02 19.3678 110.181 19.0993 109.644 18.5622C109.106 18.0252 108.838 17.2196 108.838 16.1119V10.8084H107.461V8.4923H108.838H108.804Z" fill="white"/>
<path d="M122.971 15.172C122.971 15.6084 123.139 15.9776 123.509 16.3133C123.878 16.6489 124.314 16.7832 124.818 16.7832C125.321 16.7832 125.859 16.6154 126.228 16.2797C126.564 15.944 126.765 15.5413 126.765 15.0378C126.765 14.2993 126.597 13.7958 126.228 13.4937C125.859 13.1916 125.355 13.0238 124.717 13.0238H123.106V10.5399H124.684C125.926 10.5399 126.53 9.93565 126.53 8.72726C126.53 7.51887 126.396 7.85454 126.094 7.58601C125.791 7.28391 125.389 7.14965 124.851 7.14965C124.314 7.14965 124.012 7.28391 123.71 7.51888C123.408 7.75384 123.207 8.0895 123.207 8.45873H119.883C119.883 7.72027 120.084 7.01537 120.521 6.44475C120.957 5.84055 121.528 5.40419 122.267 5.06853C123.005 4.73287 123.844 4.56503 124.717 4.56503C126.329 4.56503 127.571 4.93426 128.477 5.67272C129.384 6.41118 129.854 7.41818 129.854 8.6937C129.854 9.96922 129.652 9.9021 129.283 10.4392C128.914 10.9762 128.343 11.4462 127.638 11.7818C128.41 12.0503 129.014 12.4867 129.417 13.0238C129.82 13.5608 130.055 14.2657 130.055 15.1049C130.055 16.3804 129.551 17.421 128.578 18.193C127.604 18.965 126.295 19.3343 124.684 19.3343C123.072 19.3343 122.871 19.1664 122.065 18.7972C121.259 18.428 120.655 17.958 120.252 17.3203C119.849 16.6825 119.648 15.9776 119.648 15.172H122.971Z" fill="white"/>
<path d="M131.935 19.1664V4.83356H136.568C137.844 4.83356 138.985 5.13565 139.992 5.70628C140.999 6.27691 141.805 7.0825 142.376 8.12306C142.946 9.16362 143.215 10.3384 143.249 11.6475V12.3189C143.249 13.628 142.98 14.8028 142.409 15.8433C141.839 16.8839 141.066 17.6895 140.059 18.2937C139.052 18.8979 137.911 19.1664 136.669 19.2H131.935V19.1664ZM135.426 7.48531V16.5147H136.635C137.642 16.5147 138.381 16.1454 138.918 15.4405C139.455 14.7356 139.724 13.6951 139.724 12.2853V11.6811C139.724 10.3049 139.455 9.26432 138.918 8.55942C138.381 7.85453 137.609 7.51887 136.601 7.51887H135.426V7.48531Z" fill="white"/>
<path d="M16.4164 22.9259V9.96922L5.06934 3.42377L11.1793 0H11.4479L22.6607 6.37761V19.2L22.325 19.5692L16.4164 22.9259Z" fill="white"/>
<path d="M13.8649 11.3455V20.6098C13.8313 20.6098 13.6635 20.8783 13.6635 20.8783L8.2921 24L8.15781 14.635L0 10.0028L5.23711 6.98182C5.87497 6.61259 6.68068 7.28391 7.25139 7.58601C9.50066 8.7944 11.6156 10.1706 13.8649 11.379V11.3455Z" fill="white"/>
<path d="M5.70686 22.6238L0.0668945 19.4014L5.70686 16.0783V22.6238Z" fill="white"/>
</svg>
