<svg width="123" height="16" viewBox="0 0 123 16" fill="none" xmlns="http://www.w3.org/2000/svg">
<path d="M5.42045 15H0.264205V0.454545H5.46307C6.92614 0.454545 8.18561 0.745738 9.24148 1.32812C10.2973 1.90578 11.1094 2.73674 11.6776 3.82102C12.2505 4.9053 12.5369 6.20265 12.5369 7.71307C12.5369 9.22822 12.2505 10.5303 11.6776 11.6193C11.1094 12.7083 10.2926 13.544 9.22727 14.1264C8.16667 14.7088 6.89773 15 5.42045 15ZM3.33949 12.3651H5.29261C6.2017 12.3651 6.96638 12.2041 7.58665 11.8821C8.21165 11.5554 8.6804 11.0511 8.9929 10.3693C9.31013 9.68277 9.46875 8.79735 9.46875 7.71307C9.46875 6.63826 9.31013 5.75994 8.9929 5.07812C8.6804 4.39631 8.21402 3.89441 7.59375 3.57244C6.97348 3.25047 6.20881 3.08949 5.29972 3.08949H3.33949V12.3651ZM14.7582 15V4.09091H17.6914V5.99432H17.805C18.0039 5.31723 18.3377 4.80587 18.8065 4.46023C19.2752 4.10985 19.815 3.93466 20.4258 3.93466C20.5773 3.93466 20.7406 3.94413 20.9158 3.96307C21.091 3.98201 21.2449 4.00805 21.3775 4.04119V6.72585C21.2354 6.68324 21.0389 6.64536 20.788 6.61222C20.5371 6.57907 20.3074 6.5625 20.0991 6.5625C19.654 6.5625 19.2563 6.65956 18.9059 6.85369C18.5603 7.04309 18.2856 7.30824 18.082 7.64915C17.8832 7.99006 17.7837 8.38305 17.7837 8.82812V15H14.7582ZM27.4055 15.2131C26.2834 15.2131 25.3175 14.9858 24.5078 14.5312C23.7029 14.072 23.0826 13.4233 22.647 12.5852C22.2114 11.7424 21.9936 10.7457 21.9936 9.59517C21.9936 8.47301 22.2114 7.48816 22.647 6.64062C23.0826 5.79309 23.6958 5.13258 24.4865 4.65909C25.282 4.18561 26.2147 3.94886 27.2848 3.94886C28.0045 3.94886 28.6745 4.06487 29.2947 4.29688C29.9197 4.52415 30.4643 4.86742 30.9283 5.3267C31.397 5.78598 31.7616 6.36364 32.022 7.05966C32.2824 7.75095 32.4126 8.56061 32.4126 9.48864V10.3196H23.201V8.4446H29.5646C29.5646 8.009 29.4699 7.62311 29.2805 7.28693C29.0911 6.95076 28.8284 6.68797 28.4922 6.49858C28.1607 6.30445 27.7749 6.20739 27.3345 6.20739C26.8752 6.20739 26.468 6.31392 26.1129 6.52699C25.7625 6.73532 25.4879 7.01705 25.2891 7.37216C25.0902 7.72254 24.9884 8.11316 24.9837 8.54403V10.3267C24.9837 10.8665 25.0831 11.3329 25.282 11.7259C25.4856 12.1188 25.772 12.4219 26.1413 12.6349C26.5107 12.848 26.9486 12.9545 27.4553 12.9545C27.7914 12.9545 28.0992 12.9072 28.3786 12.8125C28.6579 12.7178 28.897 12.5758 29.0959 12.3864C29.2947 12.197 29.4463 11.965 29.5504 11.6903L32.3487 11.875C32.2067 12.5473 31.9155 13.1345 31.4751 13.6364C31.0395 14.1335 30.4761 14.5218 29.7848 14.8011C29.0982 15.0758 28.3052 15.2131 27.4055 15.2131ZM37.4979 15.206C36.8018 15.206 36.1816 15.0852 35.6371 14.8438C35.0926 14.5975 34.6617 14.2353 34.3445 13.7571C34.032 13.2741 33.8757 12.6728 33.8757 11.9531C33.8757 11.3471 33.987 10.8381 34.2095 10.4261C34.4321 10.0142 34.7351 9.68277 35.1186 9.43182C35.5021 9.18087 35.9377 8.99148 36.4254 8.86364C36.9179 8.7358 37.4339 8.64583 37.9737 8.59375C38.6082 8.52746 39.1196 8.46591 39.5078 8.40909C39.8961 8.34754 40.1778 8.25758 40.353 8.1392C40.5282 8.02083 40.6158 7.84564 40.6158 7.61364V7.57102C40.6158 7.12121 40.4737 6.7732 40.1896 6.52699C39.9103 6.28078 39.5125 6.15767 38.9964 6.15767C38.4519 6.15767 38.0187 6.27841 37.6967 6.51989C37.3748 6.75663 37.1617 7.05492 37.0575 7.41477L34.2592 7.1875C34.4013 6.52462 34.6806 5.9517 35.0973 5.46875C35.514 4.98106 36.0514 4.60701 36.7095 4.34659C37.3724 4.08144 38.1394 3.94886 39.0107 3.94886C39.6167 3.94886 40.1967 4.01989 40.7507 4.16193C41.3094 4.30398 41.8042 4.52415 42.2351 4.82244C42.6707 5.12074 43.014 5.50426 43.2649 5.97301C43.5159 6.43703 43.6413 6.99337 43.6413 7.64205V15H40.772V13.4872H40.6868C40.5116 13.8281 40.2772 14.1288 39.9837 14.3892C39.6901 14.6449 39.3374 14.8461 38.9254 14.9929C38.5135 15.1349 38.0376 15.206 37.4979 15.206ZM38.3643 13.1179C38.8094 13.1179 39.2024 13.0303 39.5433 12.8551C39.8842 12.6752 40.1518 12.4337 40.3459 12.1307C40.54 11.8277 40.6371 11.4844 40.6371 11.1009V9.94318C40.5424 10.0047 40.4122 10.0616 40.2464 10.1136C40.0855 10.161 39.9032 10.206 39.6996 10.2486C39.496 10.2865 39.2924 10.322 39.0888 10.3551C38.8852 10.3835 38.7005 10.4096 38.5348 10.4332C38.1797 10.4853 37.8696 10.5682 37.6044 10.6818C37.3393 10.7955 37.1333 10.9493 36.9865 11.1435C36.8397 11.3329 36.7663 11.5696 36.7663 11.8537C36.7663 12.2656 36.9155 12.5805 37.2138 12.7983C37.5168 13.0114 37.9003 13.1179 38.3643 13.1179ZM45.9886 15V4.09091H48.8722V6.01562H49C49.2273 5.37642 49.6061 4.87216 50.1364 4.50284C50.6667 4.13352 51.3011 3.94886 52.0398 3.94886C52.7879 3.94886 53.4247 4.13589 53.9503 4.50994C54.4759 4.87926 54.8262 5.38116 55.0014 6.01562H55.1151C55.3376 5.39062 55.7401 4.8911 56.3224 4.51705C56.9096 4.13826 57.6032 3.94886 58.4034 3.94886C59.4214 3.94886 60.2476 4.2732 60.8821 4.92188C61.5213 5.56581 61.8409 6.47964 61.8409 7.66335V15H58.8224V8.25994C58.8224 7.65388 58.6615 7.19934 58.3395 6.89631C58.0175 6.59328 57.6151 6.44176 57.1321 6.44176C56.5829 6.44176 56.1544 6.61695 55.8466 6.96733C55.5388 7.31297 55.3849 7.76989 55.3849 8.33807V15H52.4517V8.19602C52.4517 7.66098 52.2978 7.23485 51.9901 6.91761C51.687 6.60038 51.2869 6.44176 50.7898 6.44176C50.4536 6.44176 50.1506 6.52699 49.8807 6.69744C49.6155 6.86316 49.4048 7.09754 49.2486 7.40057C49.0923 7.69886 49.0142 8.04924 49.0142 8.4517V15H45.9886ZM67.3416 15.206C66.6456 15.206 66.0253 15.0852 65.4808 14.8438C64.9363 14.5975 64.5054 14.2353 64.1882 13.7571C63.8757 13.2741 63.7195 12.6728 63.7195 11.9531C63.7195 11.3471 63.8307 10.8381 64.0533 10.4261C64.2758 10.0142 64.5788 9.68277 64.9624 9.43182C65.3459 9.18087 65.7815 8.99148 66.2692 8.86364C66.7616 8.7358 67.2777 8.64583 67.8175 8.59375C68.4519 8.52746 68.9633 8.46591 69.3516 8.40909C69.7398 8.34754 70.0215 8.25758 70.1967 8.1392C70.3719 8.02083 70.4595 7.84564 70.4595 7.61364V7.57102C70.4595 7.12121 70.3175 6.7732 70.0334 6.52699C69.754 6.28078 69.3563 6.15767 68.8402 6.15767C68.2957 6.15767 67.8625 6.27841 67.5405 6.51989C67.2185 6.75663 67.0054 7.05492 66.9013 7.41477L64.103 7.1875C64.245 6.52462 64.5244 5.9517 64.9411 5.46875C65.3577 4.98106 65.8951 4.60701 66.5533 4.34659C67.2161 4.08144 67.9832 3.94886 68.8544 3.94886C69.4605 3.94886 70.0405 4.01989 70.5945 4.16193C71.1532 4.30398 71.648 4.52415 72.0788 4.82244C72.5144 5.12074 72.8577 5.50426 73.1087 5.97301C73.3596 6.43703 73.4851 6.99337 73.4851 7.64205V15H70.6158V13.4872H70.5305C70.3554 13.8281 70.121 14.1288 69.8274 14.3892C69.5339 14.6449 69.1811 14.8461 68.7692 14.9929C68.3572 15.1349 67.8814 15.206 67.3416 15.206ZM68.2081 13.1179C68.6532 13.1179 69.0462 13.0303 69.3871 12.8551C69.728 12.6752 69.9955 12.4337 70.1896 12.1307C70.3838 11.8277 70.4808 11.4844 70.4808 11.1009V9.94318C70.3861 10.0047 70.2559 10.0616 70.0902 10.1136C69.9292 10.161 69.7469 10.206 69.5433 10.2486C69.3397 10.2865 69.1361 10.322 68.9325 10.3551C68.7289 10.3835 68.5443 10.4096 68.3786 10.4332C68.0234 10.4853 67.7133 10.5682 67.4482 10.6818C67.183 10.7955 66.977 10.9493 66.8303 11.1435C66.6835 11.3329 66.6101 11.5696 66.6101 11.8537C66.6101 12.2656 66.7592 12.5805 67.0575 12.7983C67.3606 13.0114 67.7441 13.1179 68.2081 13.1179ZM75.8324 15V4.09091H78.7656V5.99432H78.8793C79.0781 5.31723 79.4119 4.80587 79.8807 4.46023C80.3494 4.10985 80.8892 3.93466 81.5 3.93466C81.6515 3.93466 81.8149 3.94413 81.9901 3.96307C82.1652 3.98201 82.3191 4.00805 82.4517 4.04119V6.72585C82.3097 6.68324 82.1132 6.64536 81.8622 6.61222C81.6113 6.57907 81.3816 6.5625 81.1733 6.5625C80.7282 6.5625 80.3305 6.65956 79.9801 6.85369C79.6345 7.04309 79.3598 7.30824 79.1562 7.64915C78.9574 7.99006 78.858 8.38305 78.858 8.82812V15H75.8324ZM90.3654 4.09091V6.36364H83.7958V4.09091H90.3654ZM85.2873 1.47727H88.3129V11.6477C88.3129 11.9271 88.3555 12.1449 88.4407 12.3011C88.5259 12.4527 88.6443 12.5592 88.7958 12.6207C88.9521 12.6823 89.132 12.7131 89.3356 12.7131C89.4776 12.7131 89.6197 12.7012 89.7617 12.6776C89.9038 12.6491 90.0127 12.6278 90.0884 12.6136L90.5643 14.8651C90.4128 14.9124 90.1997 14.9669 89.9251 15.0284C89.6504 15.0947 89.3166 15.1349 88.9237 15.1491C88.1945 15.1776 87.5553 15.0805 87.006 14.858C86.4615 14.6354 86.0378 14.2898 85.7347 13.821C85.4317 13.3523 85.2826 12.7604 85.2873 12.0455V1.47727ZM102.313 15.1989C101.253 15.1989 100.308 15.0166 99.4794 14.652C98.6555 14.2827 98.0045 13.776 97.5263 13.1321C97.0528 12.4834 96.8089 11.7353 96.7947 10.8878H99.8913C99.9103 11.2429 100.026 11.5554 100.239 11.8253C100.457 12.0904 100.746 12.2964 101.106 12.4432C101.466 12.59 101.871 12.6634 102.32 12.6634C102.789 12.6634 103.203 12.5805 103.563 12.4148C103.923 12.2491 104.205 12.0194 104.408 11.7259C104.612 11.4323 104.714 11.0937 104.714 10.7102C104.714 10.322 104.605 9.97869 104.387 9.6804C104.174 9.37737 103.866 9.14062 103.464 8.97017C103.066 8.79972 102.593 8.71449 102.043 8.71449H100.687V6.45597H102.043C102.507 6.45597 102.917 6.37547 103.272 6.21449C103.632 6.0535 103.911 5.83097 104.11 5.54688C104.309 5.25805 104.408 4.92188 104.408 4.53835C104.408 4.17377 104.321 3.85417 104.146 3.57955C103.975 3.30019 103.734 3.08239 103.421 2.92614C103.113 2.76989 102.754 2.69176 102.342 2.69176C101.925 2.69176 101.544 2.76752 101.198 2.91903C100.853 3.06581 100.576 3.27651 100.367 3.55114C100.159 3.82576 100.048 4.14773 100.033 4.51705H97.0859C97.1001 3.67898 97.3393 2.94034 97.8033 2.30114C98.2673 1.66193 98.8923 1.1624 99.6783 0.802556C100.469 0.437973 101.362 0.255681 102.356 0.255681C103.36 0.255681 104.238 0.437973 104.991 0.802556C105.744 1.16714 106.328 1.65956 106.745 2.27983C107.166 2.89536 107.375 3.58665 107.37 4.35369C107.375 5.16809 107.121 5.84754 106.61 6.39205C106.103 6.93655 105.443 7.2822 104.629 7.42898V7.54261C105.699 7.67992 106.513 8.05161 107.072 8.65767C107.635 9.259 107.915 10.0118 107.91 10.9162C107.915 11.7448 107.675 12.4811 107.192 13.125C106.714 13.7689 106.054 14.2756 105.211 14.6449C104.368 15.0142 103.402 15.1989 102.313 15.1989ZM115.362 15H110.206V0.454545H115.404C116.868 0.454545 118.127 0.745738 119.183 1.32812C120.239 1.90578 121.051 2.73674 121.619 3.82102C122.192 4.9053 122.478 6.20265 122.478 7.71307C122.478 9.22822 122.192 10.5303 121.619 11.6193C121.051 12.7083 120.234 13.544 119.169 14.1264C118.108 14.7088 116.839 15 115.362 15ZM113.281 12.3651H115.234C116.143 12.3651 116.908 12.2041 117.528 11.8821C118.153 11.5554 118.622 11.0511 118.934 10.3693C119.252 9.68277 119.41 8.79735 119.41 7.71307C119.41 6.63826 119.252 5.75994 118.934 5.07812C118.622 4.39631 118.155 3.89441 117.535 3.57244C116.915 3.25047 116.15 3.08949 115.241 3.08949H113.281V12.3651Z" fill="white"/>
</svg>
