<svg width="104" height="15" viewBox="0 0 104 15" fill="none" xmlns="http://www.w3.org/2000/svg">
<path d="M4.43757e-05 0.198869H3.79266L7.79834 9.9716H7.96879L11.9745 0.198869H15.7671V14.7443H12.7841V5.27699H12.6634L8.89919 14.6733H6.86794L3.10374 5.24148H2.983V14.7443H4.43757e-05V0.198869ZM23.173 14.9574C22.0698 14.9574 21.1157 14.723 20.3108 14.2543C19.5106 13.7808 18.8927 13.1226 18.4571 12.2798C18.0215 11.4323 17.8037 10.4498 17.8037 9.33239C17.8037 8.2055 18.0215 7.22065 18.4571 6.37785C18.8927 5.53031 19.5106 4.87216 20.3108 4.40341C21.1157 3.92993 22.0698 3.69319 23.173 3.69319C24.2762 3.69319 25.2279 3.92993 26.0281 4.40341C26.833 4.87216 27.4533 5.53031 27.8889 6.37785C28.3245 7.22065 28.5423 8.2055 28.5423 9.33239C28.5423 10.4498 28.3245 11.4323 27.8889 12.2798C27.4533 13.1226 26.833 13.7808 26.0281 14.2543C25.2279 14.723 24.2762 14.9574 23.173 14.9574ZM23.1872 12.6136C23.6891 12.6136 24.1081 12.4716 24.4443 12.1875C24.7805 11.8987 25.0338 11.5057 25.2042 11.0085C25.3794 10.5114 25.467 9.94555 25.467 9.31108C25.467 8.67662 25.3794 8.1108 25.2042 7.61364C25.0338 7.11648 24.7805 6.72349 24.4443 6.43466C24.1081 6.14584 23.6891 6.00143 23.1872 6.00143C22.6806 6.00143 22.2544 6.14584 21.9088 6.43466C21.5679 6.72349 21.3098 7.11648 21.1346 7.61364C20.9642 8.1108 20.879 8.67662 20.879 9.31108C20.879 9.94555 20.9642 10.5114 21.1346 11.0085C21.3098 11.5057 21.5679 11.8987 21.9088 12.1875C22.2544 12.4716 22.6806 12.6136 23.1872 12.6136ZM34.5295 14.9219C33.7009 14.9219 32.9504 14.7088 32.2781 14.2827C31.6105 13.8518 31.0802 13.2197 30.6872 12.3864C30.2989 11.5483 30.1048 10.5208 30.1048 9.30398C30.1048 8.05398 30.306 7.01468 30.7085 6.18608C31.111 5.35275 31.646 4.73012 32.3136 4.31819C32.986 3.90152 33.7222 3.69319 34.5224 3.69319C35.1332 3.69319 35.6422 3.79735 36.0494 4.00569C36.4613 4.20929 36.7928 4.46497 37.0437 4.77273C37.2994 5.07576 37.4935 5.37406 37.6261 5.66762H37.7184V0.198869H40.7369V14.7443H37.754V12.9972H37.6261C37.4841 13.3002 37.2828 13.6009 37.0224 13.8992C36.7667 14.1927 36.4329 14.4366 36.021 14.6307C35.6138 14.8248 35.1166 14.9219 34.5295 14.9219ZM35.4883 12.5142C35.976 12.5142 36.3879 12.3816 36.7241 12.1165C37.065 11.8466 37.3254 11.4702 37.5054 10.9872C37.69 10.5043 37.7824 9.93845 37.7824 9.28978C37.7824 8.6411 37.6924 8.07766 37.5125 7.59944C37.3325 7.12122 37.0721 6.7519 36.7312 6.49148C36.3903 6.23107 35.976 6.10086 35.4883 6.10086C34.9912 6.10086 34.5721 6.2358 34.2312 6.50569C33.8903 6.77557 33.6323 7.14963 33.4571 7.62785C33.2819 8.10607 33.1943 8.66004 33.1943 9.28978C33.1943 9.92425 33.2819 10.4853 33.4571 10.973C33.637 11.456 33.895 11.8348 34.2312 12.1094C34.5721 12.3793 34.9912 12.5142 35.4883 12.5142ZM47.2444 14.9219C46.4158 14.9219 45.6653 14.7088 44.9929 14.2827C44.3253 13.8518 43.795 13.2197 43.402 12.3864C43.0138 11.5483 42.8196 10.5208 42.8196 9.30398C42.8196 8.05398 43.0209 7.01468 43.4233 6.18608C43.8258 5.35275 44.3608 4.73012 45.0285 4.31819C45.7008 3.90152 46.4371 3.69319 47.2373 3.69319C47.8481 3.69319 48.3571 3.79735 48.7642 4.00569C49.1762 4.20929 49.5076 4.46497 49.7586 4.77273C50.0142 5.07576 50.2084 5.37406 50.341 5.66762H50.4333V0.198869H53.4517V14.7443H50.4688V12.9972H50.341C50.1989 13.3002 49.9977 13.6009 49.7373 13.8992C49.4816 14.1927 49.1478 14.4366 48.7358 14.6307C48.3286 14.8248 47.8315 14.9219 47.2444 14.9219ZM48.2032 12.5142C48.6909 12.5142 49.1028 12.3816 49.439 12.1165C49.7799 11.8466 50.0403 11.4702 50.2202 10.9872C50.4049 10.5043 50.4972 9.93845 50.4972 9.28978C50.4972 8.6411 50.4072 8.07766 50.2273 7.59944C50.0474 7.12122 49.787 6.7519 49.4461 6.49148C49.1052 6.23107 48.6909 6.10086 48.2032 6.10086C47.706 6.10086 47.287 6.2358 46.9461 6.50569C46.6052 6.77557 46.3471 7.14963 46.1719 7.62785C45.9967 8.10607 45.9091 8.66004 45.9091 9.28978C45.9091 9.92425 45.9967 10.4853 46.1719 10.973C46.3518 11.456 46.6099 11.8348 46.9461 12.1094C47.287 12.3793 47.706 12.5142 48.2032 12.5142ZM58.9649 0.198869V14.7443H55.9393V0.198869H58.9649ZM66.3601 14.9574C65.238 14.9574 64.2721 14.7301 63.4624 14.2756C62.6575 13.8163 62.0372 13.1676 61.6016 12.3296C61.166 11.4867 60.9482 10.4901 60.9482 9.33949C60.9482 8.21733 61.166 7.23249 61.6016 6.38495C62.0372 5.53741 62.6504 4.8769 63.4411 4.40341C64.2366 3.92993 65.1693 3.69319 66.2394 3.69319C66.9591 3.69319 67.6291 3.80919 68.2493 4.0412C68.8743 4.26847 69.4188 4.61175 69.8829 5.07103C70.3516 5.53031 70.7162 6.10796 70.9766 6.80398C71.237 7.49527 71.3672 8.30493 71.3672 9.23296V10.0639H62.1556V8.18893H68.5192C68.5192 7.75332 68.4245 7.36743 68.2351 7.03126C68.0457 6.69508 67.783 6.4323 67.4468 6.2429C67.1153 6.04877 66.7294 5.95171 66.2891 5.95171C65.8298 5.95171 65.4226 6.05824 65.0675 6.27131C64.7171 6.47965 64.4425 6.76137 64.2437 7.11648C64.0448 7.46686 63.943 7.85749 63.9383 8.28836V10.071C63.9383 10.6108 64.0377 11.0772 64.2366 11.4702C64.4401 11.8632 64.7266 12.1662 65.0959 12.3793C65.4652 12.5923 65.9032 12.6989 66.4098 12.6989C66.746 12.6989 67.0538 12.6515 67.3331 12.5568C67.6125 12.4621 67.8516 12.3201 68.0505 12.1307C68.2493 11.9413 68.4008 11.7093 68.505 11.4347L71.3033 11.6193C71.1613 12.2917 70.8701 12.8788 70.4297 13.3807C69.9941 13.8778 69.4307 14.2661 68.7394 14.5455C68.0528 14.8201 67.2598 14.9574 66.3601 14.9574ZM83.3186 14.9432C82.258 14.9432 81.3134 14.7609 80.4848 14.3963C79.6609 14.027 79.0099 13.5204 78.5316 12.8764C78.0582 12.2278 77.8143 11.4796 77.8001 10.6321H80.8967C80.9156 10.9872 81.0316 11.2997 81.2447 11.5696C81.4625 11.8348 81.7513 12.0407 82.1112 12.1875C82.471 12.3343 82.8759 12.4077 83.3257 12.4077C83.7944 12.4077 84.2087 12.3248 84.5686 12.1591C84.9284 11.9934 85.2102 11.7637 85.4138 11.4702C85.6174 11.1766 85.7191 10.8381 85.7191 10.4546C85.7191 10.0663 85.6102 9.72302 85.3924 9.42472C85.1794 9.12169 84.8716 8.88495 84.4691 8.71449C84.0714 8.54404 83.5979 8.45881 83.0487 8.45881H81.6922V6.20029H83.0487C83.5127 6.20029 83.9223 6.1198 84.2774 5.95881C84.6372 5.79783 84.9166 5.57529 85.1155 5.2912C85.3143 5.00237 85.4138 4.6662 85.4138 4.28268C85.4138 3.91809 85.3262 3.59849 85.151 3.32387C84.9805 3.04451 84.739 2.82671 84.4265 2.67046C84.1188 2.51421 83.7589 2.43608 83.347 2.43608C82.9303 2.43608 82.5492 2.51184 82.2035 2.66336C81.8579 2.81014 81.5809 3.02084 81.3726 3.29546C81.1642 3.57008 81.053 3.89205 81.0388 4.26137H78.0913C78.1055 3.4233 78.3446 2.68466 78.8086 2.04546C79.2727 1.40626 79.8977 0.906728 80.6836 0.54688C81.4744 0.182297 82.3669 5.00679e-06 83.3612 5.00679e-06C84.365 5.00679e-06 85.2433 0.182297 85.9961 0.54688C86.749 0.911463 87.3337 1.40389 87.7504 2.02415C88.1718 2.63968 88.3801 3.33097 88.3754 4.09802C88.3801 4.91241 88.1268 5.59186 87.6155 6.13637C87.1088 6.68088 86.4483 7.02652 85.6339 7.1733V7.28694C86.704 7.42425 87.5184 7.79593 88.0771 8.40199C88.6406 9.00332 88.9199 9.75616 88.9152 10.6605C88.9199 11.4891 88.6808 12.2254 88.1978 12.8693C87.7196 13.5133 87.0591 14.0199 86.2163 14.3892C85.3735 14.7585 84.4076 14.9432 83.3186 14.9432ZM96.3672 14.7443H91.211V0.198869H96.4098C97.8729 0.198869 99.1324 0.490062 100.188 1.07245C101.244 1.6501 102.056 2.48107 102.624 3.56535C103.197 4.64963 103.484 5.94698 103.484 7.45739C103.484 8.97254 103.197 10.2746 102.624 11.3636C102.056 12.4527 101.239 13.2884 100.174 13.8707C99.1134 14.4531 97.8445 14.7443 96.3672 14.7443ZM94.2863 12.1094H96.2394C97.1485 12.1094 97.9132 11.9484 98.5334 11.6264C99.1584 11.2997 99.6272 10.7955 99.9397 10.1136C100.257 9.42709 100.416 8.54167 100.416 7.45739C100.416 6.38258 100.257 5.50427 99.9397 4.82245C99.6272 4.14063 99.1608 3.63874 98.5405 3.31677C97.9203 2.9948 97.1556 2.83381 96.2465 2.83381H94.2863V12.1094Z" fill="white"/>
</svg>
