<svg width="20" height="20" viewBox="0 0 20 20" fill="none" xmlns="http://www.w3.org/2000/svg">
<g clip-path="url(#clip0_176_2685)">
<path fill-rule="evenodd" clip-rule="evenodd" d="M14.7904 9.4675C14.7788 6.79458 14.68 4.80375 14.5854 3.49125C14.5394 2.80997 14.2514 2.16757 13.7733 1.68002C13.2952 1.19247 12.6586 0.891876 11.9783 0.8325C10.8533 0.728333 9.32958 0.625 7.70833 0.625C6.09583 0.625 4.57917 0.727083 3.45625 0.830833C2.77161 0.891786 2.13126 1.19531 1.65064 1.6867C1.17003 2.17809 0.880764 2.82501 0.835 3.51083C0.733333 4.93583 0.625 7.12667 0.625 10C0.625 13.8546 0.7225 16.6888 0.778333 17.9904C0.794467 18.3636 0.954304 18.7162 1.2244 18.9742C1.4945 19.2323 1.85394 19.3759 2.2275 19.375H17.4137C17.8942 19.3764 18.3565 19.1915 18.7035 18.8592C19.0505 18.5268 19.2552 18.073 19.2746 17.5929C19.3192 16.4679 19.375 14.6625 19.375 12.7083C19.375 11.2058 19.3092 9.85292 19.2383 8.83083C19.1383 7.39083 18.0167 6.24833 16.5675 6.1475C16.3803 6.13472 16.1825 6.12222 15.9742 6.11C16.0142 7.20708 16.0417 8.50333 16.0417 10C16.0417 12.9208 15.9896 15.1883 15.9396 16.6875C15.9341 16.8506 15.8651 17.005 15.7472 17.1179C15.6294 17.2308 15.4721 17.293 15.3089 17.2915C15.1457 17.2899 14.9897 17.2246 14.874 17.1095C14.7584 16.9943 14.6923 16.8386 14.69 16.6754C14.7612 14.451 14.7951 12.2256 14.7917 10C14.7917 9.81945 14.7913 9.64195 14.7904 9.4675ZM5.41667 4.16667C5.63768 4.16667 5.84964 4.25446 6.00592 4.41074C6.1622 4.56703 6.25 4.77899 6.25 5V5.83333C6.25 6.05435 6.1622 6.26631 6.00592 6.42259C5.84964 6.57887 5.63768 6.66667 5.41667 6.66667C5.19565 6.66667 4.98369 6.57887 4.82741 6.42259C4.67113 6.26631 4.58333 6.05435 4.58333 5.83333V5C4.58333 4.77899 4.67113 4.56703 4.82741 4.41074C4.98369 4.25446 5.19565 4.16667 5.41667 4.16667ZM6.25 9.58333C6.25 9.36232 6.1622 9.15036 6.00592 8.99408C5.84964 8.8378 5.63768 8.75 5.41667 8.75C5.19565 8.75 4.98369 8.8378 4.82741 8.99408C4.67113 9.15036 4.58333 9.36232 4.58333 9.58333V10.4167C4.58333 10.6377 4.67113 10.8496 4.82741 11.0059C4.98369 11.1622 5.19565 11.25 5.41667 11.25C5.63768 11.25 5.84964 11.1622 6.00592 11.0059C6.1622 10.8496 6.25 10.6377 6.25 10.4167V9.58333ZM10 4.16667C10.221 4.16667 10.433 4.25446 10.5893 4.41074C10.7455 4.56703 10.8333 4.77899 10.8333 5V5.83333C10.8333 6.05435 10.7455 6.26631 10.5893 6.42259C10.433 6.57887 10.221 6.66667 10 6.66667C9.77899 6.66667 9.56702 6.57887 9.41074 6.42259C9.25446 6.26631 9.16667 6.05435 9.16667 5.83333V5C9.16667 4.77899 9.25446 4.56703 9.41074 4.41074C9.56702 4.25446 9.77899 4.16667 10 4.16667ZM10.8333 9.58333C10.8333 9.36232 10.7455 9.15036 10.5893 8.99408C10.433 8.8378 10.221 8.75 10 8.75C9.77899 8.75 9.56702 8.8378 9.41074 8.99408C9.25446 9.15036 9.16667 9.36232 9.16667 9.58333V10.4167C9.16667 10.6377 9.25446 10.8496 9.41074 11.0059C9.56702 11.1622 9.77899 11.25 10 11.25C10.221 11.25 10.433 11.1622 10.5893 11.0059C10.7455 10.8496 10.8333 10.6377 10.8333 10.4167V9.58333ZM7.91667 13.125C7.46792 13.125 7.10833 13.1521 6.82292 13.1917C6.07875 13.2942 5.685 13.9313 5.65792 14.6188C5.63384 15.3011 5.62286 15.9839 5.625 16.6667C5.625 17.1554 5.62917 17.57 5.63542 17.9208C5.63651 17.9754 5.65894 18.0273 5.69789 18.0655C5.73684 18.1036 5.78921 18.125 5.84375 18.125H9.98958C10.0441 18.125 10.0965 18.1036 10.1354 18.0655C10.1744 18.0273 10.1968 17.9754 10.1979 17.9208C10.2042 17.57 10.2083 17.1554 10.2083 16.6667C10.2083 15.7404 10.1937 15.0808 10.1754 14.6188C10.1483 13.9313 9.75458 13.2942 9.01042 13.1917C8.64781 13.1442 8.28235 13.1219 7.91667 13.125Z" fill="white"/>
</g>
<defs>
<clipPath id="clip0_176_2685">
<rect width="20" height="20" fill="white"/>
</clipPath>
</defs>
</svg>
