<svg width="21" height="20" viewBox="0 0 21 20" fill="none" xmlns="http://www.w3.org/2000/svg">
<path fill-rule="evenodd" clip-rule="evenodd" d="M4.5 4C4.5 3.46957 4.71071 2.96086 5.08579 2.58579C5.46086 2.21071 5.96957 2 6.5 2H14.5C15.0304 2 15.5391 2.21071 15.9142 2.58579C16.2893 2.96086 16.5 3.46957 16.5 4V16C16.7652 16 17.0196 16.1054 17.2071 16.2929C17.3946 16.4804 17.5 16.7348 17.5 17C17.5 17.2652 17.3946 17.5196 17.2071 17.7071C17.0196 17.8946 16.7652 18 16.5 18H13.5C13.2348 18 12.9804 17.8946 12.7929 17.7071C12.6054 17.5196 12.5 17.2652 12.5 17V15C12.5 14.7348 12.3946 14.4804 12.2071 14.2929C12.0196 14.1054 11.7652 14 11.5 14H9.5C9.23478 14 8.98043 14.1054 8.79289 14.2929C8.60536 14.4804 8.5 14.7348 8.5 15V17C8.5 17.2652 8.39464 17.5196 8.20711 17.7071C8.01957 17.8946 7.76522 18 7.5 18H4.5C4.23478 18 3.98043 17.8946 3.79289 17.7071C3.60536 17.5196 3.5 17.2652 3.5 17C3.5 16.7348 3.60536 16.4804 3.79289 16.2929C3.98043 16.1054 4.23478 16 4.5 16V4ZM7.5 5H9.5V7H7.5V5ZM9.5 9H7.5V11H9.5V9ZM11.5 5H13.5V7H11.5V5ZM13.5 9H11.5V11H13.5V9Z" fill="white"/>
</svg>
