<svg width="64" height="65" viewBox="0 0 64 65" fill="none" xmlns="http://www.w3.org/2000/svg">
<path d="M51.88 47.52C51.06 49.78 49.28 51.56 47.02 52.38C37.01 56.05 26.99 56.05 16.98 52.38C14.72 51.56 12.94 49.78 12.12 47.52C8.47002 37.53 8.46002 27.54 12.09 17.55C12.93 15.25 14.75 13.46 17.06 12.65C27.55 8.97001 37.57 8.95001 47.11 12.58C49.32 13.42 51.04 15.18 51.85 17.4C55.54 27.44 55.55 37.48 51.88 47.52Z" fill="#0867E3"/>
<path d="M31.9999 51.13C27.4899 51.13 22.8999 50.29 18.3599 48.62C17.1999 48.2 16.2999 47.3 15.8799 46.15C12.5299 36.98 12.5199 28.07 15.8499 18.91C16.2799 17.74 17.1999 16.83 18.3799 16.42C23.1999 14.73 27.9599 13.87 32.5299 13.87C36.9899 13.87 41.4199 14.69 45.6799 16.32C46.7899 16.74 47.6699 17.64 48.0799 18.77C51.4699 27.99 51.4799 36.94 48.1099 46.15C47.6899 47.31 46.7899 48.21 45.6399 48.62C41.0999 50.29 36.5099 51.13 31.9999 51.13Z" fill="#2583FF"/>
<path d="M47.76 22.14C46.67 20.93 44.8 20.89 43.65 22.03L30.42 35.27C29.62 36.07 28.31 35.99 27.61 35.11L24.53 31.26C23.44 29.9 21.34 29.81 20.15 31.21C19.26 32.25 19.32 33.81 20.18 34.88L26.46 42.74C26.98 43.38 27.74 43.79 28.57 43.83H28.63C29.42 43.85 30.18 43.52 30.75 42.96L47.56 26.15C48.63 25.06 48.78 23.28 47.76 22.14Z" fill="#14263D"/>
<path d="M26.62 43.82C26.6 43.82 26.58 43.82 26.56 43.82C25.74 43.78 24.97 43.38 24.45 42.73L18.17 34.87C17.32 33.8 17.25 32.24 18.14 31.2C19.34 29.8 21.43 29.89 22.52 31.25L25.6 35.1C26.3 35.98 27.61 36.05 28.41 35.26L41.65 22.02C42.79 20.88 44.66 20.92 45.76 22.13C46.79 23.27 46.63 25.05 45.54 26.14L28.73 42.95C28.17 43.51 27.41 43.84 26.62 43.82Z" fill="#EDF2F5"/>
</svg>
